<svg id="visual" viewBox="0 0 900 600" width="900" height="600" xmlns="http://www.w3.org/2000/svg" xmlns:xlink="http://www.w3.org/1999/xlink" version="1.1"><rect x="0" y="0" width="900" height="600" fill="#140021"></rect><path d="M409 600L522 600L522 514L432 514L432 429L546 429L546 343L461 343L461 257L494 257L494 171L548 171L548 86L526 86L526 0L900 0L900 86L900 86L900 171L900 171L900 257L900 257L900 343L900 343L900 429L900 429L900 514L900 514L900 600L900 600Z" fill="#9900ff"></path><path d="M653 600L674 600L674 514L598 514L598 429L680 429L680 343L646 343L646 257L675 257L675 171L521 171L521 86L629 86L629 0L900 0L900 86L900 86L900 171L900 171L900 257L900 257L900 343L900 343L900 429L900 429L900 514L900 514L900 600L900 600Z" fill="#7700c6"></path><path d="M698 600L681 600L681 514L715 514L715 429L768 429L768 343L695 343L695 257L710 257L710 171L804 171L804 86L675 86L675 0L900 0L900 86L900 86L900 171L900 171L900 257L900 257L900 343L900 343L900 429L900 429L900 514L900 514L900 600L900 600Z" fill="#560090"></path></svg>